<?xml version="1.0" encoding="utf-8"?>
<svg version="1.1" xmlns:xlink="http://www.w3.org/1999/xlink" width="300px" height="170px" xmlns="http://www.w3.org/2000/svg">
  <g transform="matrix(1 0 0 1 -297 -182 )">
    <path d="M 297 182  L 597 182  L 597 352  L 297 352  L 297 182  " fill-rule="nonzero" fill="#cccccc" stroke="none" />
    <path d="M 309 194  L 585 194  L 585 340  L 309 340  L 309 194  " fill-rule="nonzero" fill="#ffffff" stroke="none" />
    <path d="M 465.75 233  C 458.61 233  453 227.39  453 220.25  C 453 213.11  458.61 207.5  465.75 207.5  C 472.89 207.5  478.5 213.11  478.5 220.25  C 478.5 227.39  472.89 233  465.75 233  " fill-rule="nonzero" fill="#cccccc" stroke="none" />
    <path d="M 314 336  L 314 260.65  L 380.75 226.4  L 474.2 289.42  L 527.6 246.95  L 581 289.42  L 581 336  L 314 336  " fill-rule="nonzero" fill="#169bd5" stroke="none" />
  </g>
</svg>